# xmcd
# 
# Track frame offsets:
#     150
#     14880
#     28687
#     44452
#     61990
#     79215
#     98042
#     113247
#     135842
#     154430
#     172265
#     193332
# 
# Disc length: 2822
# 
# Revision: 4
# Processed by: cddbd v1.5.2PL0 Copyright (c) Steve Scherf et al.
# Submitted via: fre:ac v1.0.31
# 
DISCID=aa0b040c
DTITLE=Ana Belén - Lorquiana
DYEAR=0
DGENRE=Vocal
TTITLE0=Los cuatro muleros
TTITLE1=Zorongo gitano
TTITLE2=La Tarara
TTITLE3=Anda jaleo
TTITLE4=Las tres hojas
TTITLE5=Sevillanas del siglo XVIII
TTITLE6=Los pelegrinitos
TTITLE7=Los mozos de Monleón
TTITLE8=Romance de don Boyso
TTITLE9=Las morillas de Jaén
TTITLE10=En el Café de Chinitas
TTITLE11=Nana de Sevilla
EXTD=ID3G:   0
EXTT0=Renaud SECHAN.
EXTT1=Renaud SECHAN-Franck LANGOLFF.
EXTT2=Renaud SECHAN.
EXTT3=Renaud SECHAN-Luc BERTIN.
EXTT4=Renaud SECHAN.
EXTT5=Renaud SECHAN-Franck LANGOLFF.
EXTT6=Renaud SECHAN-Franck LANGOLFF.
EXTT7=Renaud SECHAN.
EXTT8=Renaud SECHAN.
EXTT9=Renaud SECHAN.
EXTT10=Renaud SECHAN-Pierre-Jean GIDON.
EXTT11=Renaud SECHAN.
PLAYORDER=
